# xmcd
# 
# Track frame offsets:
#     150
#     20540
#     33437
#     54067
#     68590
#     86400
#     111015
#     130900
#     148740
#     164945
#     184595
# 
# Disc length: 2821
# 
# Revision: 14
# Processed by: cddbd v1.5.2PL0 Copyright (c) Steve Scherf et al.
# Submitted via: fre:ac v1.0.31
# 
DISCID=900b030b
DTITLE=BOWY - JUST A HERO
DYEAR=1986
DGENRE=Japanese Rock
TTITLE0=Dancing In The Pleasure Land
TTITLE1=Rouge Of Gray
TTITLE2=わがままジュリエット
TTITLE3=Plastic Ocean
TTITLE4=Justy
TTITLE5=Just A Hero
TTITLE6=1994 -Label Of Complex-
TTITLE7=ミス・ミステリー・レディ (Visual Vision)
TTITLE8=Blue Vacation
TTITLE9=Like A Child
TTITLE10=Welcome To The Twilight
EXTD=YEAR: 1986
EXTT0=
EXTT1=
EXTT2=
EXTT3=
EXTT4=
EXTT5=
EXTT6=
EXTT7=
EXTT8=
EXTT9=
EXTT10=
PLAYORDER=
